<svg viewBox="35.4 127.5 208 25" xmlns="http://www.w3.org/2000/svg" ><path fill-rule="nonzero" fill="#0E0B0A" fill-opacity="1" d="M 49.160156 131.832031 L 48.496094 132.363281 C 48.035156 132.734375 47.375 132.703125 46.9375 132.3125 C 46.566406 131.976562 46.214844 131.707031 45.886719 131.5 C 45.355469 131.164062 44.582031 130.996094 43.578125 130.996094 C 42.472656 130.996094 41.582031 131.246094 40.894531 131.742188 C 40.210938 132.242188 39.867188 132.882812 39.867188 133.667969 C 39.867188 134.347656 40.164062 134.949219 40.765625 135.46875 C 41.363281 135.988281 42.382812 136.558594 43.824219 137.179688 C 45.269531 137.800781 46.390625 138.375 47.195312 138.910156 C 47.996094 139.445312 48.65625 140.035156 49.171875 140.679688 C 49.6875 141.324219 50.074219 142.007812 50.324219 142.722656 C 50.578125 143.4375 50.703125 144.195312 50.703125 144.992188 C 50.703125 146.859375 50.023438 148.449219 48.667969 149.765625 C 47.3125 151.078125 45.667969 151.738281 43.742188 151.738281 C 41.863281 151.738281 40.203125 151.222656 38.765625 150.195312 C 37.652344 149.402344 36.738281 148.300781 36.023438 146.894531 C 35.683594 146.222656 36.050781 145.398438 36.777344 145.195312 L 37.5625 144.972656 C 38.089844 144.824219 38.65625 145.058594 38.925781 145.539062 C 40.03125 147.511719 41.601562 148.496094 43.636719 148.496094 C 44.753906 148.496094 45.679688 148.160156 46.421875 147.492188 C 47.160156 146.824219 47.53125 145.984375 47.53125 144.964844 C 47.53125 144.355469 47.335938 143.742188 46.949219 143.128906 C 46.5625 142.511719 46.078125 142.007812 45.503906 141.609375 C 44.925781 141.210938 44.011719 140.753906 42.753906 140.238281 C 41.496094 139.722656 40.527344 139.25 39.851562 138.820312 C 39.171875 138.394531 38.585938 137.882812 38.089844 137.289062 C 37.597656 136.699219 37.234375 136.109375 37.003906 135.519531 C 36.773438 134.933594 36.660156 134.304688 36.660156 133.636719 C 36.660156 132.027344 37.304688 130.65625 38.597656 129.523438 C 39.890625 128.390625 41.457031 127.824219 43.300781 127.824219 C 44.523438 127.824219 45.761719 128.089844 47.019531 128.617188 C 47.859375 128.972656 48.605469 129.449219 49.257812 130.050781 C 49.785156 130.535156 49.714844 131.386719 49.160156 131.832031 "/><path fill-rule="nonzero" fill="#0E0B0A" fill-opacity="1" d="M 85.878906 139.761719 C 85.878906 137.289062 84.988281 135.203125 83.203125 133.507812 C 81.417969 131.8125 79.21875 130.960938 76.613281 130.960938 C 74.132812 130.960938 72.007812 131.824219 70.242188 133.550781 C 68.472656 135.273438 67.589844 137.347656 67.589844 139.761719 C 67.589844 142.214844 68.496094 144.292969 70.3125 145.988281 C 72.128906 147.683594 74.351562 148.53125 76.980469 148.53125 C 79.402344 148.53125 81.488281 147.664062 83.246094 145.933594 C 85.003906 144.203125 85.878906 142.148438 85.878906 139.761719 M 64.382812 139.625 C 64.382812 136.382812 65.605469 133.605469 68.046875 131.292969 C 70.492188 128.980469 73.429688 127.828125 76.859375 127.828125 C 80.207031 127.828125 83.089844 128.992188 85.511719 131.320312 C 87.929688 133.652344 89.140625 136.417969 89.140625 139.625 C 89.140625 143.015625 87.945312 145.882812 85.554688 148.226562 C 83.164062 150.566406 80.230469 151.738281 76.753906 151.738281 C 73.324219 151.738281 70.402344 150.558594 67.996094 148.199219 C 65.585938 145.839844 64.382812 142.980469 64.382812 139.625 "/><path fill-rule="nonzero" fill="#0E0B0A" fill-opacity="1" d="M 104.863281 128.566406 L 105.921875 128.566406 C 106.476562 128.566406 106.925781 129.015625 106.925781 129.570312 L 106.925781 142.363281 C 106.925781 144.40625 107.417969 145.988281 108.398438 147.101562 C 109.378906 148.21875 110.765625 148.777344 112.566406 148.777344 C 114.351562 148.777344 115.738281 148.261719 116.730469 147.234375 C 117.722656 146.207031 118.222656 144.761719 118.222656 142.890625 L 118.222656 129.570312 C 118.222656 129.015625 118.671875 128.566406 119.226562 128.566406 L 120.28125 128.566406 C 120.835938 128.566406 121.289062 129.015625 121.289062 129.570312 L 121.289062 142.679688 C 121.289062 145.429688 120.503906 147.625 118.933594 149.269531 C 117.367188 150.914062 115.277344 151.738281 112.671875 151.738281 C 110.003906 151.738281 107.867188 150.902344 106.265625 149.234375 C 104.660156 147.566406 103.859375 145.105469 103.859375 141.851562 L 103.859375 129.570312 C 103.859375 129.015625 104.308594 128.566406 104.863281 128.566406 "/><path fill-rule="nonzero" fill="#0E0B0A" fill-opacity="1" d="M 149.183594 131.921875 L 148.710938 132.304688 C 148.207031 132.707031 147.488281 132.671875 147.003906 132.246094 C 146.660156 131.941406 146.332031 131.691406 146.027344 131.5 C 145.492188 131.164062 144.722656 130.996094 143.714844 130.996094 C 142.613281 130.996094 141.71875 131.246094 141.035156 131.742188 C 140.347656 132.242188 140.007812 132.882812 140.007812 133.667969 C 140.007812 134.347656 140.304688 134.949219 140.902344 135.46875 C 141.503906 135.988281 142.523438 136.5625 143.964844 137.179688 C 145.40625 137.800781 146.53125 138.375 147.335938 138.910156 C 148.136719 139.445312 148.796875 140.035156 149.3125 140.679688 C 149.828125 141.324219 150.210938 142.007812 150.464844 142.722656 C 150.714844 143.4375 150.84375 144.195312 150.84375 144.992188 C 150.84375 146.859375 150.164062 148.449219 148.808594 149.765625 C 147.449219 151.082031 145.808594 151.738281 143.882812 151.738281 C 142.003906 151.738281 140.34375 151.222656 138.90625 150.195312 C 137.824219 149.425781 136.933594 148.367188 136.226562 147.015625 C 135.84375 146.285156 136.257812 145.378906 137.050781 145.15625 L 137.613281 145 C 138.195312 144.835938 138.808594 145.09375 139.109375 145.617188 C 140.214844 147.535156 141.769531 148.496094 143.777344 148.496094 C 144.894531 148.496094 145.820312 148.160156 146.558594 147.492188 C 147.300781 146.828125 147.671875 145.984375 147.671875 144.964844 C 147.671875 144.355469 147.476562 143.742188 147.089844 143.128906 C 146.703125 142.511719 146.21875 142.007812 145.644531 141.609375 C 145.066406 141.210938 144.152344 140.753906 142.894531 140.238281 C 141.636719 139.722656 140.667969 139.25 139.992188 138.820312 C 139.3125 138.394531 138.726562 137.882812 138.230469 137.289062 C 137.738281 136.699219 137.375 136.109375 137.144531 135.519531 C 136.914062 134.933594 136.800781 134.304688 136.800781 133.636719 C 136.800781 132.027344 137.445312 130.65625 138.738281 129.523438 C 140.03125 128.394531 141.597656 127.828125 143.445312 127.828125 C 144.664062 127.828125 145.902344 128.089844 147.160156 128.617188 C 147.921875 128.9375 148.609375 129.363281 149.214844 129.886719 C 149.84375 130.425781 149.832031 131.40625 149.183594 131.921875 "/><path fill-rule="nonzero" fill="#0E0B0A" fill-opacity="1" d="M 166.117188 128.53125 L 167.867188 128.53125 C 168.230469 128.53125 168.523438 128.824219 168.523438 129.1875 L 168.523438 136.109375 C 168.523438 136.6875 169.21875 136.984375 169.636719 136.585938 L 177.855469 128.714844 C 177.976562 128.597656 178.140625 128.53125 178.308594 128.53125 L 180.6875 128.53125 C 181.28125 128.53125 181.570312 129.253906 181.140625 129.664062 L 171.933594 138.503906 C 171.675781 138.75 171.660156 139.15625 171.902344 139.421875 L 181.394531 149.878906 C 181.777344 150.300781 181.476562 150.980469 180.90625 150.980469 L 178.777344 150.980469 C 178.59375 150.980469 178.417969 150.902344 178.292969 150.765625 L 169.667969 141.285156 C 169.261719 140.839844 168.523438 141.125 168.523438 141.726562 L 168.523438 150.324219 C 168.523438 150.683594 168.230469 150.980469 167.867188 150.980469 L 166.117188 150.980469 C 165.753906 150.980469 165.457031 150.683594 165.457031 150.324219 L 165.457031 129.1875 C 165.457031 128.824219 165.753906 128.53125 166.117188 128.53125 "/><path fill-rule="nonzero" fill="#0E0B0A" fill-opacity="1" d="M 203.9375 136.070312 L 199.761719 145.378906 C 199.496094 145.964844 200.109375 146.5625 200.691406 146.285156 L 206.460938 143.511719 C 207.425781 143.050781 207.84375 141.902344 207.402344 140.929688 L 205.199219 136.070312 C 204.953125 135.527344 204.183594 135.527344 203.9375 136.070312 M 205.207031 129.054688 L 214.726562 150.003906 C 214.9375 150.460938 214.601562 150.980469 214.097656 150.980469 L 212.40625 150.980469 C 212.132812 150.980469 211.886719 150.820312 211.777344 150.574219 L 210.625 148.042969 C 210.25 147.207031 209.300781 146.800781 208.433594 147.097656 L 197.394531 150.914062 C 197.257812 150.933594 197.128906 150.957031 196.996094 150.980469 L 195.132812 150.980469 C 194.632812 150.980469 194.296875 150.460938 194.503906 150.003906 L 203.945312 129.058594 C 204.191406 128.515625 204.960938 128.515625 205.207031 129.054688 "/><path fill-rule="nonzero" fill="#0E0B0A" fill-opacity="1" d="M 226.484375 128.53125 L 228.285156 128.53125 C 228.523438 128.53125 228.742188 128.65625 228.867188 128.859375 L 233.054688 135.71875 C 233.570312 136.5625 234.792969 136.558594 235.300781 135.714844 L 239.4375 128.863281 C 239.5625 128.65625 239.785156 128.53125 240.023438 128.53125 L 241.820312 128.53125 C 242.355469 128.53125 242.683594 129.113281 242.40625 129.570312 L 235.769531 140.523438 C 235.707031 140.632812 235.671875 140.753906 235.671875 140.878906 L 235.671875 150.292969 C 235.671875 150.671875 235.367188 150.980469 234.988281 150.980469 L 233.289062 150.980469 C 232.910156 150.980469 232.605469 150.671875 232.605469 150.292969 L 232.605469 140.914062 C 232.605469 140.789062 232.570312 140.667969 232.507812 140.5625 L 225.898438 129.566406 C 225.625 129.113281 225.953125 128.53125 226.484375 128.53125 "/></svg>